<mxfile host="65bd71144e">
    <diagram id="xJlBe3gPgybJXYB6LHA3" name="Page-1">
        <mxGraphModel dx="2567" dy="2127" grid="1" gridSize="10" guides="1" tooltips="1" connect="1" arrows="1" fold="1" page="0" pageScale="1" pageWidth="827" pageHeight="1169" math="0" shadow="0">
            <root>
                <mxCell id="0"/>
                <mxCell id="1" parent="0"/>
                <mxCell id="113" value="РАСЧЕТ БОНУСОВ" style="rounded=0;whiteSpace=wrap;html=1;fillColor=none;dashed=1;strokeWidth=2;fontSize=30;verticalAlign=top;" vertex="1" parent="1">
                    <mxGeometry x="3050" y="2570" width="2540" height="800" as="geometry"/>
                </mxCell>
                <mxCell id="83" value="НАЙМ УЧИТЕЛЕЙ" style="rounded=0;whiteSpace=wrap;html=1;fillColor=none;dashed=1;strokeWidth=2;fontSize=30;verticalAlign=top;" vertex="1" parent="1">
                    <mxGeometry x="510" y="1400" width="3170" height="990" as="geometry"/>
                </mxCell>
                <mxCell id="43" value="УПРАВЛЕНИ ЗАДАНИЯМИ" style="rounded=0;whiteSpace=wrap;html=1;fillColor=none;dashed=1;strokeWidth=2;fontSize=30;verticalAlign=top;" vertex="1" parent="1">
                    <mxGeometry x="510" y="-30" width="2240" height="1400" as="geometry"/>
                </mxCell>
                <mxCell id="2" value="READ MODEL" style="rounded=1;whiteSpace=wrap;html=1;fillColor=#d5e8d4;strokeColor=#82b366;fontSize=14;" vertex="1" parent="1">
                    <mxGeometry x="20" y="230" width="120" height="60" as="geometry"/>
                </mxCell>
                <mxCell id="3" value="COMMAND" style="rounded=1;whiteSpace=wrap;html=1;fillColor=#dae8fc;strokeColor=#6c8ebf;fontSize=14;" vertex="1" parent="1">
                    <mxGeometry x="20" y="300" width="120" height="60" as="geometry"/>
                </mxCell>
                <mxCell id="4" value="EXTERNAL SYSTEM" style="rounded=1;whiteSpace=wrap;html=1;fillColor=#f8cecc;strokeColor=#b85450;fontSize=14;" vertex="1" parent="1">
                    <mxGeometry x="20" y="380" width="120" height="60" as="geometry"/>
                </mxCell>
                <mxCell id="5" value="COMMENT" style="rounded=1;whiteSpace=wrap;html=1;fillColor=#f5f5f5;strokeColor=#666666;fontColor=#333333;fontSize=14;" vertex="1" parent="1">
                    <mxGeometry x="20" y="460" width="120" height="60" as="geometry"/>
                </mxCell>
                <mxCell id="6" value="ACTOR" style="rounded=1;whiteSpace=wrap;html=1;fillColor=#fff2cc;strokeColor=#d6b656;fontSize=14;" vertex="1" parent="1">
                    <mxGeometry x="20" y="150" width="120" height="60" as="geometry"/>
                </mxCell>
                <mxCell id="7" value="POLICY" style="rounded=1;whiteSpace=wrap;html=1;fillColor=#e1d5e7;strokeColor=#9673a6;fontSize=14;" vertex="1" parent="1">
                    <mxGeometry x="20" y="530" width="120" height="60" as="geometry"/>
                </mxCell>
                <mxCell id="8" value="МЕНЕДЖЕР" style="rounded=1;whiteSpace=wrap;html=1;fillColor=#fff2cc;strokeColor=#d6b656;fontSize=14;" vertex="1" parent="1">
                    <mxGeometry x="550" y="150" width="120" height="60" as="geometry"/>
                </mxCell>
                <mxCell id="10" value="СОЗДАТЬ ЗАДАНИЕ ДЛЯ УЧИТЕЛЕЙ" style="rounded=1;whiteSpace=wrap;html=1;fillColor=#dae8fc;strokeColor=#6c8ebf;fontSize=14;" vertex="1" parent="1">
                    <mxGeometry x="690" y="150" width="120" height="60" as="geometry"/>
                </mxCell>
                <mxCell id="12" value="EVENT" style="rounded=1;whiteSpace=wrap;html=1;fillColor=#ffe6cc;strokeColor=#d79b00;fontSize=14;" vertex="1" parent="1">
                    <mxGeometry x="20" y="70" width="120" height="60" as="geometry"/>
                </mxCell>
                <mxCell id="38" style="edgeStyle=orthogonalEdgeStyle;html=1;entryX=0;entryY=0.5;entryDx=0;entryDy=0;" edge="1" parent="1" source="13" target="35">
                    <mxGeometry relative="1" as="geometry"/>
                </mxCell>
                <mxCell id="90" style="edgeStyle=orthogonalEdgeStyle;html=1;entryX=0;entryY=0.5;entryDx=0;entryDy=0;" edge="1" parent="1" source="13" target="85">
                    <mxGeometry relative="1" as="geometry">
                        <mxPoint x="1980" y="2650" as="targetPoint"/>
                        <Array as="points">
                            <mxPoint x="1000" y="180"/>
                            <mxPoint x="1000" y="3180"/>
                        </Array>
                    </mxGeometry>
                </mxCell>
                <mxCell id="13" value="ЗАДАНИЕ СОЗДАНО" style="rounded=1;whiteSpace=wrap;html=1;fillColor=#ffe6cc;strokeColor=#d79b00;fontSize=14;" vertex="1" parent="1">
                    <mxGeometry x="830" y="150" width="120" height="60" as="geometry"/>
                </mxCell>
                <mxCell id="14" value="МЕНЕДЖЕР" style="rounded=1;whiteSpace=wrap;html=1;fillColor=#fff2cc;strokeColor=#d6b656;fontSize=14;" vertex="1" parent="1">
                    <mxGeometry x="1800" y="290" width="120" height="60" as="geometry"/>
                </mxCell>
                <mxCell id="15" value="ИЗМЕНИТЬ ЗАДАНИЕ" style="rounded=1;whiteSpace=wrap;html=1;fillColor=#dae8fc;strokeColor=#6c8ebf;fontSize=14;" vertex="1" parent="1">
                    <mxGeometry x="1940" y="290" width="120" height="60" as="geometry"/>
                </mxCell>
                <mxCell id="37" style="edgeStyle=orthogonalEdgeStyle;html=1;entryX=0;entryY=0.5;entryDx=0;entryDy=0;" edge="1" parent="1" source="16" target="34">
                    <mxGeometry relative="1" as="geometry"/>
                </mxCell>
                <mxCell id="16" value="ЗАДАНИЕ ИЗМЕНЕНО&amp;nbsp;" style="rounded=1;whiteSpace=wrap;html=1;fillColor=#ffe6cc;strokeColor=#d79b00;fontSize=14;" vertex="1" parent="1">
                    <mxGeometry x="2080" y="290" width="120" height="60" as="geometry"/>
                </mxCell>
                <mxCell id="17" value="СЛИШКОМ COARSE?&amp;nbsp;" style="rounded=1;whiteSpace=wrap;html=1;fillColor=#f5f5f5;strokeColor=#666666;fontColor=#333333;fontSize=14;" vertex="1" parent="1">
                    <mxGeometry x="2180" y="330" width="120" height="60" as="geometry"/>
                </mxCell>
                <mxCell id="31" style="edgeStyle=orthogonalEdgeStyle;html=1;entryX=0;entryY=0.5;entryDx=0;entryDy=0;" edge="1" parent="1" source="18" target="19">
                    <mxGeometry relative="1" as="geometry">
                        <Array as="points">
                            <mxPoint x="3140" y="1595"/>
                            <mxPoint x="3140" y="680"/>
                            <mxPoint x="950" y="680"/>
                            <mxPoint x="950" y="617"/>
                        </Array>
                    </mxGeometry>
                </mxCell>
                <mxCell id="75" style="edgeStyle=orthogonalEdgeStyle;html=1;entryX=0;entryY=0.5;entryDx=0;entryDy=0;" edge="1" parent="1" source="18" target="74">
                    <mxGeometry relative="1" as="geometry"/>
                </mxCell>
                <mxCell id="80" style="edgeStyle=orthogonalEdgeStyle;html=1;entryX=0;entryY=0.5;entryDx=0;entryDy=0;exitX=1;exitY=0.5;exitDx=0;exitDy=0;" edge="1" parent="1" source="18" target="78">
                    <mxGeometry relative="1" as="geometry">
                        <Array as="points">
                            <mxPoint x="3140" y="1595"/>
                            <mxPoint x="3140" y="1745"/>
                        </Array>
                    </mxGeometry>
                </mxCell>
                <mxCell id="89" style="edgeStyle=orthogonalEdgeStyle;html=1;entryX=0;entryY=0.75;entryDx=0;entryDy=0;" edge="1" parent="1" source="18" target="86">
                    <mxGeometry relative="1" as="geometry">
                        <mxPoint x="1689.9999999999995" y="2930" as="targetPoint"/>
                        <Array as="points">
                            <mxPoint x="3140" y="1595"/>
                        </Array>
                    </mxGeometry>
                </mxCell>
                <mxCell id="18" value="ЗАДАНИЕ ВЫПОЛНЕНО УСПЕШНО" style="rounded=1;whiteSpace=wrap;html=1;fillColor=#ffe6cc;strokeColor=#d79b00;fontSize=14;" vertex="1" parent="1">
                    <mxGeometry x="2970" y="1565" width="120" height="60" as="geometry"/>
                </mxCell>
                <mxCell id="19" value="ВЫПОЛНЕННЫЕ ЗАДАНИЯ" style="rounded=1;whiteSpace=wrap;html=1;fillColor=#d5e8d4;strokeColor=#82b366;fontSize=14;" vertex="1" parent="1">
                    <mxGeometry x="990" y="587.5" width="120" height="60" as="geometry"/>
                </mxCell>
                <mxCell id="20" value="&amp;nbsp;CRON&amp;nbsp;" style="rounded=1;whiteSpace=wrap;html=1;fillColor=#fff2cc;strokeColor=#d6b656;fontSize=14;" vertex="1" parent="1">
                    <mxGeometry x="1120" y="587.5" width="120" height="60" as="geometry"/>
                </mxCell>
                <mxCell id="21" value="НАЗНАЧИТЬ МЕНЕДЖЕРА" style="rounded=1;whiteSpace=wrap;html=1;fillColor=#dae8fc;strokeColor=#6c8ebf;fontSize=14;" vertex="1" parent="1">
                    <mxGeometry x="1250" y="587.5" width="120" height="60" as="geometry"/>
                </mxCell>
                <mxCell id="23" value="БУДЕМ ЖДАТЬ N ЗАДАНИЙ&lt;br&gt;ЧТОБЫ РЕШИТЬ ЧТО ОНО ПРОСТОЕ" style="rounded=1;whiteSpace=wrap;html=1;fillColor=#f5f5f5;strokeColor=#666666;fontColor=#333333;fontSize=14;" vertex="1" parent="1">
                    <mxGeometry x="1020" y="490" width="130" height="107.5" as="geometry"/>
                </mxCell>
                <mxCell id="26" style="edgeStyle=orthogonalEdgeStyle;html=1;entryX=0;entryY=0.75;entryDx=0;entryDy=0;" edge="1" parent="1" target="14">
                    <mxGeometry relative="1" as="geometry">
                        <mxPoint x="1730" y="375" as="sourcePoint"/>
                    </mxGeometry>
                </mxCell>
                <mxCell id="24" value="НАЗНАЧЕННЫЕ ЗАДАНИЯ НА УСЛОЖЕНИЕ" style="rounded=1;whiteSpace=wrap;html=1;fillColor=#d5e8d4;strokeColor=#82b366;fontSize=14;" vertex="1" parent="1">
                    <mxGeometry x="1610" y="347.5" width="120" height="60" as="geometry"/>
                </mxCell>
                <mxCell id="27" style="edgeStyle=orthogonalEdgeStyle;html=1;" edge="1" parent="1" source="25" target="14">
                    <mxGeometry relative="1" as="geometry"/>
                </mxCell>
                <mxCell id="25" value="ЗАДАЧИ НА ИСПРАВЛЕНИЕ" style="rounded=1;whiteSpace=wrap;html=1;fillColor=#d5e8d4;strokeColor=#82b366;fontSize=14;" vertex="1" parent="1">
                    <mxGeometry x="1610" y="255" width="120" height="60" as="geometry"/>
                </mxCell>
                <mxCell id="30" style="edgeStyle=orthogonalEdgeStyle;html=1;entryX=0;entryY=0.5;entryDx=0;entryDy=0;exitX=1;exitY=0.5;exitDx=0;exitDy=0;" edge="1" parent="1" source="29" target="24">
                    <mxGeometry relative="1" as="geometry"/>
                </mxCell>
                <mxCell id="29" value="ЗАДАЧА НАЗНАЧЕНА МЕНЕДЖЕРУ" style="rounded=1;whiteSpace=wrap;html=1;fillColor=#ffe6cc;strokeColor=#d79b00;fontSize=14;" vertex="1" parent="1">
                    <mxGeometry x="1380" y="587.5" width="120" height="60" as="geometry"/>
                </mxCell>
                <mxCell id="32" value="HH.RU&amp;nbsp;" style="rounded=1;whiteSpace=wrap;html=1;fillColor=#f8cecc;strokeColor=#b85450;fontSize=14;" vertex="1" parent="1">
                    <mxGeometry x="2530" y="120" width="120" height="60" as="geometry"/>
                </mxCell>
                <mxCell id="34" value="ИЗМЕНЕННОЕ ЗАДАНИЕ" style="rounded=1;whiteSpace=wrap;html=1;fillColor=#d5e8d4;strokeColor=#82b366;fontSize=14;" vertex="1" parent="1">
                    <mxGeometry x="2250" y="170" width="120" height="60" as="geometry"/>
                </mxCell>
                <mxCell id="35" value="СОЗДАННОЕ ЗАДАНИЕ" style="rounded=1;whiteSpace=wrap;html=1;fillColor=#d5e8d4;strokeColor=#82b366;fontSize=14;" vertex="1" parent="1">
                    <mxGeometry x="2250" y="90" width="120" height="60" as="geometry"/>
                </mxCell>
                <mxCell id="36" value="ОТПРАВИТЬ В СЕРВИС НАЙМА" style="rounded=1;whiteSpace=wrap;html=1;fillColor=#dae8fc;strokeColor=#6c8ebf;fontSize=14;" vertex="1" parent="1">
                    <mxGeometry x="2390" y="120" width="120" height="60" as="geometry"/>
                </mxCell>
                <mxCell id="39" value="КАНДИДАТ В УЧИТЕЛЯ" style="rounded=1;whiteSpace=wrap;html=1;fillColor=#fff2cc;strokeColor=#d6b656;fontSize=14;" vertex="1" parent="1">
                    <mxGeometry x="560" y="2220" width="120" height="60" as="geometry"/>
                </mxCell>
                <mxCell id="41" value="ЗАРЕГИСТРИРОВАТЬСЯ" style="rounded=1;whiteSpace=wrap;html=1;fillColor=#dae8fc;strokeColor=#6c8ebf;fontSize=14;" vertex="1" parent="1">
                    <mxGeometry x="690" y="2220" width="190" height="60" as="geometry"/>
                </mxCell>
                <mxCell id="47" style="edgeStyle=orthogonalEdgeStyle;html=1;entryX=0;entryY=0.5;entryDx=0;entryDy=0;" edge="1" parent="1" source="42" target="44">
                    <mxGeometry relative="1" as="geometry"/>
                </mxCell>
                <mxCell id="42" value="КАНДИДАТ ЗАРЕГИСТРИРОВАН" style="rounded=1;whiteSpace=wrap;html=1;fillColor=#ffe6cc;strokeColor=#d79b00;fontSize=14;" vertex="1" parent="1">
                    <mxGeometry x="900" y="2220" width="160" height="60" as="geometry"/>
                </mxCell>
                <mxCell id="44" value="ОТПРАВИТЬ ЛОГИН И ПАРОЛЬ" style="rounded=1;whiteSpace=wrap;html=1;fillColor=#dae8fc;strokeColor=#6c8ebf;fontSize=14;" vertex="1" parent="1">
                    <mxGeometry x="1130" y="2120" width="190" height="60" as="geometry"/>
                </mxCell>
                <mxCell id="45" value="ПОЧТА" style="rounded=1;whiteSpace=wrap;html=1;fillColor=#f8cecc;strokeColor=#b85450;fontSize=14;" vertex="1" parent="1">
                    <mxGeometry x="1340" y="2120" width="120" height="60" as="geometry"/>
                </mxCell>
                <mxCell id="46" value="ЛОГИН И ПАРОЛЬ ОТПРАВЛЕНЫ" style="rounded=1;whiteSpace=wrap;html=1;fillColor=#ffe6cc;strokeColor=#d79b00;fontSize=14;" vertex="1" parent="1">
                    <mxGeometry x="1480" y="2120" width="110" height="60" as="geometry"/>
                </mxCell>
                <mxCell id="48" value="КАНДИДАТ В УЧИТЕЛЯ" style="rounded=1;whiteSpace=wrap;html=1;fillColor=#fff2cc;strokeColor=#d6b656;fontSize=14;" vertex="1" parent="1">
                    <mxGeometry x="1700" y="2200" width="120" height="60" as="geometry"/>
                </mxCell>
                <mxCell id="49" value="ВХОДИТ В СИСТЕМУ" style="rounded=1;whiteSpace=wrap;html=1;fillColor=#dae8fc;strokeColor=#6c8ebf;fontSize=14;" vertex="1" parent="1">
                    <mxGeometry x="1830" y="2200" width="120" height="60" as="geometry"/>
                </mxCell>
                <mxCell id="53" value="ASYNC" style="rounded=1;whiteSpace=wrap;html=1;fillColor=#f5f5f5;strokeColor=#666666;fontColor=#333333;fontSize=14;" vertex="1" parent="1">
                    <mxGeometry x="1430" y="130" width="70" height="60" as="geometry"/>
                </mxCell>
                <mxCell id="54" value="ASYNC" style="rounded=1;whiteSpace=wrap;html=1;fillColor=#f5f5f5;strokeColor=#666666;fontColor=#333333;fontSize=14;" vertex="1" parent="1">
                    <mxGeometry x="1490" y="450" width="70" height="60" as="geometry"/>
                </mxCell>
                <mxCell id="55" value="ASYNC" style="rounded=1;whiteSpace=wrap;html=1;fillColor=#f5f5f5;strokeColor=#666666;fontColor=#333333;fontSize=14;" vertex="1" parent="1">
                    <mxGeometry x="2220" y="250" width="70" height="60" as="geometry"/>
                </mxCell>
                <mxCell id="59" value="МЕНЕДЖЕР" style="rounded=1;whiteSpace=wrap;html=1;fillColor=#fff2cc;strokeColor=#d6b656;fontSize=14;" vertex="1" parent="1">
                    <mxGeometry x="540" y="1605" width="120" height="60" as="geometry"/>
                </mxCell>
                <mxCell id="60" value="НАЗНАЧИТЬ ЗАДАНИЕ КАНДИДАТУ" style="rounded=1;whiteSpace=wrap;html=1;fillColor=#dae8fc;strokeColor=#6c8ebf;fontSize=14;" vertex="1" parent="1">
                    <mxGeometry x="680" y="1605" width="120" height="60" as="geometry"/>
                </mxCell>
                <mxCell id="63" style="edgeStyle=orthogonalEdgeStyle;html=1;entryX=0;entryY=0.5;entryDx=0;entryDy=0;" edge="1" parent="1" source="61" target="62">
                    <mxGeometry relative="1" as="geometry"/>
                </mxCell>
                <mxCell id="61" value="ЗАДАНИЕ НАЗНАЧЕНО" style="rounded=1;whiteSpace=wrap;html=1;fillColor=#ffe6cc;strokeColor=#d79b00;fontSize=14;" vertex="1" parent="1">
                    <mxGeometry x="820" y="1605" width="120" height="60" as="geometry"/>
                </mxCell>
                <mxCell id="62" value="НАЗНАЧЕННЫЕ ЗАДАНИЯ" style="rounded=1;whiteSpace=wrap;html=1;fillColor=#d5e8d4;strokeColor=#82b366;fontSize=14;" vertex="1" parent="1">
                    <mxGeometry x="2040" y="1605" width="120" height="60" as="geometry"/>
                </mxCell>
                <mxCell id="65" value="КАНДИДАТ В УЧИТЕЛЯ" style="rounded=1;whiteSpace=wrap;html=1;fillColor=#fff2cc;strokeColor=#d6b656;fontSize=14;" vertex="1" parent="1">
                    <mxGeometry x="2170" y="1605" width="120" height="60" as="geometry"/>
                </mxCell>
                <mxCell id="66" value="ВЫПОЛНИТЬ ЗАДАНИЕ" style="rounded=1;whiteSpace=wrap;html=1;fillColor=#dae8fc;strokeColor=#6c8ebf;fontSize=14;" vertex="1" parent="1">
                    <mxGeometry x="2300" y="1605" width="120" height="60" as="geometry"/>
                </mxCell>
                <mxCell id="70" style="edgeStyle=none;html=1;" edge="1" parent="1" source="68" target="69">
                    <mxGeometry relative="1" as="geometry"/>
                </mxCell>
                <mxCell id="68" value="ЗАДАНИЕ ВЫПОЛНЕНО" style="rounded=1;whiteSpace=wrap;html=1;fillColor=#ffe6cc;strokeColor=#d79b00;fontSize=14;" vertex="1" parent="1">
                    <mxGeometry x="2430" y="1605" width="110" height="60" as="geometry"/>
                </mxCell>
                <mxCell id="69" value="ПРОВЕРИТЬ ЗАДАНИЕ" style="rounded=1;whiteSpace=wrap;html=1;fillColor=#dae8fc;strokeColor=#6c8ebf;fontSize=14;" vertex="1" parent="1">
                    <mxGeometry x="2840" y="1605" width="120" height="60" as="geometry"/>
                </mxCell>
                <mxCell id="94" style="edgeStyle=orthogonalEdgeStyle;html=1;entryX=0;entryY=0.5;entryDx=0;entryDy=0;" edge="1" parent="1" source="73" target="91">
                    <mxGeometry relative="1" as="geometry">
                        <Array as="points">
                            <mxPoint x="3110" y="1675"/>
                            <mxPoint x="3110" y="2730"/>
                        </Array>
                    </mxGeometry>
                </mxCell>
                <mxCell id="73" value="ЗАДАНИЕ ВЫПОЛНЕНО НЕ УСПЕШНО&amp;nbsp;" style="rounded=1;whiteSpace=wrap;html=1;fillColor=#ffe6cc;strokeColor=#d79b00;fontSize=14;" vertex="1" parent="1">
                    <mxGeometry x="2970" y="1645" width="120" height="60" as="geometry"/>
                </mxCell>
                <mxCell id="74" value="ОТПРАВИТЬ В СИСТЕМУ К ИБРАГИМУ И ОЛЕГУ" style="rounded=1;whiteSpace=wrap;html=1;fillColor=#dae8fc;strokeColor=#6c8ebf;fontSize=14;" vertex="1" parent="1">
                    <mxGeometry x="3320" y="1550" width="140" height="90" as="geometry"/>
                </mxCell>
                <mxCell id="76" value="ASYNC" style="rounded=1;whiteSpace=wrap;html=1;fillColor=#f5f5f5;strokeColor=#666666;fontColor=#333333;fontSize=14;" vertex="1" parent="1">
                    <mxGeometry x="3120" y="1560" width="70" height="60" as="geometry"/>
                </mxCell>
                <mxCell id="77" value="ASYNC" style="rounded=1;whiteSpace=wrap;html=1;fillColor=#f5f5f5;strokeColor=#666666;fontColor=#333333;fontSize=14;" vertex="1" parent="1">
                    <mxGeometry x="1560" y="1590" width="70" height="60" as="geometry"/>
                </mxCell>
                <mxCell id="78" value="ПОСЧИТАТЬ РЕЙТИНГ ЗАДАНИЯ" style="rounded=1;whiteSpace=wrap;html=1;fillColor=#dae8fc;strokeColor=#6c8ebf;fontSize=14;" vertex="1" parent="1">
                    <mxGeometry x="3320" y="1700" width="160" height="90" as="geometry"/>
                </mxCell>
                <mxCell id="79" value="СИСТЕМА ИБРАГИМА И ОЛЕГА" style="rounded=1;whiteSpace=wrap;html=1;fillColor=#f8cecc;strokeColor=#b85450;fontSize=14;" vertex="1" parent="1">
                    <mxGeometry x="3480" y="1565" width="120" height="60" as="geometry"/>
                </mxCell>
                <mxCell id="81" value="РЕЙТИНГ ПОСЧИТАН" style="rounded=1;whiteSpace=wrap;html=1;fillColor=#ffe6cc;strokeColor=#d79b00;fontSize=14;" vertex="1" parent="1">
                    <mxGeometry x="3500" y="1700" width="140" height="90" as="geometry"/>
                </mxCell>
                <mxCell id="82" value="ФОРМУЛА :&amp;nbsp;&lt;span style=&quot;font-family: monospace; font-size: 0px; text-align: start; text-wrap-mode: nowrap;&quot;&gt;%3CmxGraphModel%3E%3Croot%3E%3CmxCell%20id%3D%220%22%2F%3E%3CmxCell%20id%3D%221%22%20parent%3D%220%22%2F%3E%3CmxCell%20id%3D%222%22%20value%3D%22ASYNC%22%20style%3D%22rounded%3D1%3BwhiteSpace%3Dwrap%3Bhtml%3D1%3BfillColor%3D%23f5f5f5%3BstrokeColor%3D%23666666%3BfontColor%3D%23333333%3BfontSize%3D14%3B%22%20vertex%3D%221%22%20parent%3D%221%22%3E%3CmxGeometry%20x%3D%221000%22%20y%3D%221420%22%20width%3D%2270%22%20height%3D%2260%22%20as%3D%22geometry%22%2F%3E%3C%2FmxCell%3E%3C%2Froot%3E%3C%2FmxGraphModel%3E&lt;/span&gt;&lt;span style=&quot;caret-color: rgb(55, 53, 47); color: rgb(235, 87, 87); font-family: SFMono-Regular, Consolas, &amp;quot;Liberation Mono&amp;quot;, Menlo, Courier, monospace; font-size: 13.6px; text-align: left; white-space-collapse: preserve; background-color: rgba(135, 131, 120, 0.15);&quot;&gt;rating = success_answers_count / total_answers_count&lt;/span&gt;" style="rounded=1;whiteSpace=wrap;html=1;fillColor=#f5f5f5;strokeColor=#666666;fontColor=#333333;fontSize=14;" vertex="1" parent="1">
                    <mxGeometry x="3230" y="1780" width="220" height="80" as="geometry"/>
                </mxCell>
                <mxCell id="116" style="edgeStyle=orthogonalEdgeStyle;html=1;entryX=0;entryY=0.5;entryDx=0;entryDy=0;exitX=1;exitY=0.5;exitDx=0;exitDy=0;" edge="1" parent="1" source="88" target="114">
                    <mxGeometry relative="1" as="geometry">
                        <Array as="points">
                            <mxPoint x="3840" y="3150"/>
                            <mxPoint x="3840" y="2950"/>
                        </Array>
                    </mxGeometry>
                </mxCell>
                <mxCell id="84" value="НАЧИСЛИТЬ БОНУС" style="rounded=1;whiteSpace=wrap;html=1;fillColor=#dae8fc;strokeColor=#6c8ebf;fontSize=14;" vertex="1" parent="1">
                    <mxGeometry x="3390" y="3120" width="280" height="60" as="geometry"/>
                </mxCell>
                <mxCell id="85" value="СОЗДАННЫЕ ЗАДАНИЯ" style="rounded=1;whiteSpace=wrap;html=1;fillColor=#d5e8d4;strokeColor=#82b366;fontSize=14;" vertex="1" parent="1">
                    <mxGeometry x="3250" y="3150" width="120" height="60" as="geometry"/>
                </mxCell>
                <mxCell id="86" value="ВЫПОЛНЕННЫЕ ЗАДАНИЯ" style="rounded=1;whiteSpace=wrap;html=1;fillColor=#d5e8d4;strokeColor=#82b366;fontSize=14;" vertex="1" parent="1">
                    <mxGeometry x="3250" y="3070" width="120" height="60" as="geometry"/>
                </mxCell>
                <mxCell id="87" value="&lt;span style=&quot;caret-color: rgb(55, 53, 47); font-family: &amp;quot;PT Root UI&amp;quot;, sans-serif; font-size: medium; text-align: left; white-space-collapse: preserve;&quot;&gt;Начисление и списание бонусов зависят от рейтинга. Если рейтинг 0 или 1 — начисляется 1%, если в промежутке между этими двумя числами (от 0.1 до 0.9) — начисляется 100% бонуса.&lt;/span&gt;" style="rounded=1;whiteSpace=wrap;html=1;fillColor=#f5f5f5;strokeColor=#666666;fontColor=default;fontSize=14;labelBackgroundColor=none;" vertex="1" parent="1">
                    <mxGeometry x="3410" y="2970" width="240" height="160" as="geometry"/>
                </mxCell>
                <mxCell id="88" value="БОНУС НАЧИСЛЕН" style="rounded=1;whiteSpace=wrap;html=1;fillColor=#ffe6cc;strokeColor=#d79b00;fontSize=14;" vertex="1" parent="1">
                    <mxGeometry x="3680" y="3120" width="110" height="60" as="geometry"/>
                </mxCell>
                <mxCell id="91" value="НЕ УСПЕШНЫЕ ВЫПОЛЕНИЯ ЗАДАНИЙ" style="rounded=1;whiteSpace=wrap;html=1;fillColor=#d5e8d4;strokeColor=#82b366;fontSize=14;" vertex="1" parent="1">
                    <mxGeometry x="3240" y="2700" width="120" height="60" as="geometry"/>
                </mxCell>
                <mxCell id="92" value="СПИСАТЬ БОНУС" style="rounded=1;whiteSpace=wrap;html=1;fillColor=#dae8fc;strokeColor=#6c8ebf;fontSize=14;" vertex="1" parent="1">
                    <mxGeometry x="3370" y="2700" width="180" height="60" as="geometry"/>
                </mxCell>
                <mxCell id="115" style="edgeStyle=orthogonalEdgeStyle;html=1;entryX=0;entryY=0.5;entryDx=0;entryDy=0;" edge="1" parent="1" source="93" target="114">
                    <mxGeometry relative="1" as="geometry">
                        <Array as="points">
                            <mxPoint x="3840" y="2730"/>
                            <mxPoint x="3840" y="2950"/>
                        </Array>
                    </mxGeometry>
                </mxCell>
                <mxCell id="93" value="БОНУС СПИСАН" style="rounded=1;whiteSpace=wrap;html=1;fillColor=#ffe6cc;strokeColor=#d79b00;fontSize=14;" vertex="1" parent="1">
                    <mxGeometry x="3560" y="2700" width="110" height="60" as="geometry"/>
                </mxCell>
                <mxCell id="95" value="&lt;span style=&quot;caret-color: rgb(55, 53, 47); font-family: &amp;quot;PT Root UI&amp;quot;, sans-serif; font-size: medium; text-align: left; white-space-collapse: preserve;&quot;&gt;СПИСЫВАЕМ ПО 500 уе&lt;/span&gt;" style="rounded=1;whiteSpace=wrap;html=1;fillColor=#f5f5f5;strokeColor=#666666;fontColor=default;fontSize=14;labelBackgroundColor=none;" vertex="1" parent="1">
                    <mxGeometry x="3395" y="2650" width="130" height="60" as="geometry"/>
                </mxCell>
                <mxCell id="96" value="&lt;span style=&quot;caret-color: rgb(55, 53, 47); font-family: &amp;quot;PT Root UI&amp;quot;, sans-serif; font-size: medium; text-align: left; white-space-collapse: preserve;&quot;&gt;БАЗА ДЛЯ РАСЧЕТА &lt;br/&gt;100уе&lt;/span&gt;" style="rounded=1;whiteSpace=wrap;html=1;fillColor=#f5f5f5;strokeColor=#666666;fontColor=default;fontSize=14;labelBackgroundColor=none;" vertex="1" parent="1">
                    <mxGeometry x="3420" y="2900" width="110" height="70" as="geometry"/>
                </mxCell>
                <mxCell id="97" value="ПЕРЕВЕСТИ ЗАРАБОТАННЫЕ ДЕНЬГИ" style="rounded=1;whiteSpace=wrap;html=1;fillColor=#dae8fc;strokeColor=#6c8ebf;fontSize=14;" vertex="1" parent="1">
                    <mxGeometry x="4580" y="2920" width="145" height="60" as="geometry"/>
                </mxCell>
                <mxCell id="98" value="CRON&amp;nbsp;" style="rounded=1;whiteSpace=wrap;html=1;fillColor=#fff2cc;strokeColor=#d6b656;fontSize=14;" vertex="1" parent="1">
                    <mxGeometry x="4240" y="2910" width="120" height="60" as="geometry"/>
                </mxCell>
                <mxCell id="112" style="edgeStyle=none;html=1;" edge="1" parent="1" source="102" target="109">
                    <mxGeometry relative="1" as="geometry"/>
                </mxCell>
                <mxCell id="102" value="ДЕНЬГИ ПЕРЕВЕДЕНЫ" style="rounded=1;whiteSpace=wrap;html=1;fillColor=#ffe6cc;strokeColor=#d79b00;fontSize=14;" vertex="1" parent="1">
                    <mxGeometry x="4890" y="2950" width="110" height="60" as="geometry"/>
                </mxCell>
                <mxCell id="103" value="ДЕНЬГИ НЕ ПЕРЕВЕДЕНЫ" style="rounded=1;whiteSpace=wrap;html=1;fillColor=#ffe6cc;strokeColor=#d79b00;fontSize=14;" vertex="1" parent="1">
                    <mxGeometry x="4890" y="2870" width="110" height="60" as="geometry"/>
                </mxCell>
                <mxCell id="104" value="БАЛАНС ПОЛОЖИТЕЛЬНЫЙ" style="rounded=1;whiteSpace=wrap;html=1;fillColor=#e1d5e7;strokeColor=#9673a6;fontSize=14;" vertex="1" parent="1">
                    <mxGeometry x="4390" y="2920" width="160" height="60" as="geometry"/>
                </mxCell>
                <mxCell id="106" value="&lt;div style=&quot;&quot;&gt;&lt;span style=&quot;background-color: transparent; caret-color: rgb(55, 53, 47); white-space-collapse: preserve;&quot;&gt;&lt;font face=&quot;PT Root UI, sans-serif&quot; size=&quot;3&quot;&gt;ПОКА РАСЧИТЫВАТЬ БУДЕМ РАЗ В МЕСЯЦ&lt;/font&gt;&lt;/span&gt;&lt;/div&gt;" style="rounded=1;whiteSpace=wrap;html=1;fillColor=#f5f5f5;strokeColor=#666666;fontColor=default;fontSize=14;labelBackgroundColor=none;verticalAlign=middle;align=center;" vertex="1" parent="1">
                    <mxGeometry x="4250" y="2820" width="140" height="100" as="geometry"/>
                </mxCell>
                <mxCell id="107" value="ПЛАТЕЖНАЯ СИСТЕМА" style="rounded=1;whiteSpace=wrap;html=1;fillColor=#f8cecc;strokeColor=#b85450;fontSize=14;" vertex="1" parent="1">
                    <mxGeometry x="4750" y="2920" width="120" height="60" as="geometry"/>
                </mxCell>
                <mxCell id="108" value="ОБНУЛИТЬ БАЛАНС" style="rounded=1;whiteSpace=wrap;html=1;fillColor=#dae8fc;strokeColor=#6c8ebf;fontSize=14;" vertex="1" parent="1">
                    <mxGeometry x="5300" y="2950" width="120" height="60" as="geometry"/>
                </mxCell>
                <mxCell id="109" value="ЗАВЕРШЕННЫЕ ТРАНЗАКЦИИ&amp;nbsp;" style="rounded=1;whiteSpace=wrap;html=1;fillColor=#d5e8d4;strokeColor=#82b366;fontSize=14;" vertex="1" parent="1">
                    <mxGeometry x="5160" y="2950" width="120" height="60" as="geometry"/>
                </mxCell>
                <mxCell id="111" value="БАЛАНС ОБНУЛЕН" style="rounded=1;whiteSpace=wrap;html=1;fillColor=#ffe6cc;strokeColor=#d79b00;fontSize=14;" vertex="1" parent="1">
                    <mxGeometry x="5440" y="2950" width="110" height="60" as="geometry"/>
                </mxCell>
                <mxCell id="114" value="ИЗМЕНИТЬ БАЛАНС" style="rounded=1;whiteSpace=wrap;html=1;fillColor=#dae8fc;strokeColor=#6c8ebf;fontSize=14;" vertex="1" parent="1">
                    <mxGeometry x="3880" y="2920" width="110" height="60" as="geometry"/>
                </mxCell>
                <mxCell id="117" value="БАЛАНС ИЗМЕНЕН" style="rounded=1;whiteSpace=wrap;html=1;fillColor=#ffe6cc;strokeColor=#d79b00;fontSize=14;" vertex="1" parent="1">
                    <mxGeometry x="4000" y="2920" width="110" height="60" as="geometry"/>
                </mxCell>
            </root>
        </mxGraphModel>
    </diagram>
</mxfile>